<?xml version="1.0" encoding="UTF-8"?>
<svg width="24px" height="24px" viewBox="0 0 24 24" version="1.1" xmlns="http://www.w3.org/2000/svg" xmlns:xlink="http://www.w3.org/1999/xlink">
    <!-- Generator: Sketch 52.3 (67297) - http://www.bohemiancoding.com/sketch -->
    <title>Icons/Car/Idle</title>
    <desc>Created with Sketch.</desc>
    <defs>
        <path d="M7.6182,6 L16.3822,6 L18.3822,10 L5.6182,10 L7.6182,6 Z M5.5002,16 L5.0002,16 L5.0002,15 L7.0002,15 C7.5522,15 8.0002,14.552 8.0002,14 C8.0002,13.448 7.5522,13 7.0002,13 L5.0002,13 L5.0002,12 L19.0002,12 L19.0002,13 L17.0002,13 C16.4482,13 16.0002,13.448 16.0002,14 C16.0002,14.552 16.4482,15 17.0002,15 L19.0002,15 L19.0002,16 L18.5002,16 L5.5002,16 Z M21.0002,11 C21.0002,10.986 20.9932,10.975 20.9922,10.961 C20.9882,10.857 20.9672,10.755 20.9312,10.656 C20.9222,10.634 20.9172,10.612 20.9082,10.59 C20.9022,10.578 20.9002,10.565 20.8942,10.553 L17.8942,4.553 C17.7252,4.214 17.3792,4 17.0002,4 L7.0002,4 C6.6212,4 6.2752,4.214 6.1052,4.553 L3.1052,10.553 C3.0992,10.565 3.0972,10.578 3.0922,10.59 C3.0822,10.612 3.0772,10.634 3.0692,10.656 C3.0332,10.755 3.0122,10.857 3.0082,10.961 C3.0072,10.975 3.0002,10.986 3.0002,11 L3.0002,17 C3.0002,17.064 3.0252,17.12 3.0362,17.18 C3.0142,17.284 3.0002,17.39 3.0002,17.5 L3.0002,18.5 C3.0002,19.325 3.6752,20 4.5002,20 L5.5002,20 C6.3252,20 7.0002,19.325 7.0002,18.5 L7.0002,18 L17.0002,18 L17.0002,18.5 C17.0002,19.325 17.6752,20 18.5002,20 L19.5002,20 C20.3252,20 21.0002,19.325 21.0002,18.5 L21.0002,17.5 C21.0002,17.39 20.9862,17.284 20.9642,17.18 C20.9752,17.12 21.0002,17.064 21.0002,17 L21.0002,11 Z" id="path-1"></path>
    </defs>
    <g id="Icons/Car/Idle" stroke="none" stroke-width="1" fill="none" fill-rule="evenodd">
        <mask id="mask-2" fill="white">
            <use xlink:href="#path-1"></use>
        </mask>
        <use id="Fill-1" fill="#f3123c" xlink:href="#path-1"></use>
        <g id="Colors/Grey/Grey-1" mask="url(#mask-2)" fill="#f3123c">
            <rect id="Rectangle" x="0" y="0" width="24" height="24"></rect>
        </g>
    </g>
</svg>