<?xml version="1.0" encoding="UTF-8"?>
<svg width="24px" height="24px" viewBox="0 0 24 24" version="1.1" xmlns="http://www.w3.org/2000/svg" xmlns:xlink="http://www.w3.org/1999/xlink">
    <!-- Generator: Sketch 52.3 (67297) - http://www.bohemiancoding.com/sketch -->
    <title>Icons/Motorcycle</title>
    <desc>Created with Sketch.</desc>
    <defs>
        <path d="M16,14.5 C16,15.891 15.178,17.085 14,17.649 L14,14.5 C14,13.675 13.325,13 12.5,13 L11.5,13 C10.675,13 10,13.675 10,14.5 L10,17.649 C8.822,17.085 8,15.891 8,14.5 L8,11.5 C8,10.473 8.455,9.521 9.216,8.862 C9.937,9.564 10.917,10 12,10 C13.083,10 14.063,9.564 14.784,8.863 C15.545,9.521 16,10.473 16,11.5 L16,14.5 Z M12,4 C13.103,4 14,4.897 14,6 C14,7.103 13.103,8 12,8 C10.897,8 10,7.103 10,6 C10,4.897 10.897,4 12,4 Z M19,5 L15.857,5 C15.411,3.28 13.858,2 12,2 C10.142,2 8.589,3.28 8.143,5 L5,5 C4.447,5 4,5.448 4,6 C4,6.552 4.447,7 5,7 L8.143,7 C8.153,7.043 8.169,7.085 8.182,7.128 C6.821,8.161 6,9.763 6,11.5 L6,14.5 C6,17.012 7.695,19.131 10,19.787 L10,20.5 C10,21.325 10.675,22 11.5,22 L12.5,22 C13.325,22 14,21.325 14,20.5 L14,19.787 C16.305,19.131 18,17.012 18,14.5 L18,11.5 C18,9.763 17.179,8.161 15.818,7.128 C15.831,7.085 15.847,7.043 15.857,7 L19,7 C19.553,7 20,6.552 20,6 C20,5.448 19.553,5 19,5 Z" id="path-1"></path>
    </defs>
    <g id="Icons/Motorcycle" stroke="none" stroke-width="1" fill="none" fill-rule="evenodd">
        <mask id="mask-2" fill="white">
            <use xlink:href="#path-1"></use>
        </mask>
        <use id="Fill-1" fill="#f3123c" xlink:href="#path-1"></use>
        <g id="Colors/Grey/Grey-1" mask="url(#mask-2)" fill="#f3123c">
            <rect id="Rectangle" x="0" y="0" width="24" height="24"></rect>
        </g>
    </g>
</svg>